<?xml version="1.0" standalone="no"?>
<!DOCTYPE svg PUBLIC "-//W3C//DTD SVG 20010904//EN"
 "http://www.w3.org/TR/2001/REC-SVG-20010904/DTD/svg10.dtd">
<svg version="1.0" xmlns="http://www.w3.org/2000/svg"
 width="512.000000pt" height="512.000000pt" viewBox="0 0 512.000000 512.000000"
 preserveAspectRatio="xMidYMid meet">
<metadata>
Created by potrace 1.14, written by Peter Selinger 2001-2017
</metadata>
<g transform="translate(0.000000,512.000000) scale(0.100000,-0.100000)"
fill="#000000" stroke="none">
<path d="M956 4864 c-350 -63 -639 -356 -701 -709 -23 -132 -23 -3058 0 -3190
52 -296 261 -550 546 -664 157 -63 100 -61 1763 -61 1628 1 1580 -1 1735 53
233 81 447 295 528 528 54 155 52 107 53 1735 0 1311 -2 1523 -15 1599 -63
358 -352 647 -710 710 -126 22 -3077 21 -3199 -1z m2581 -1327 c753 -753 953
-957 953 -977 0 -36 -1894 -1930 -1930 -1930 -36 0 -1930 1894 -1930 1930 0
36 1894 1930 1930 1930 20 0 224 -200 977 -953z"/>
<path d="M2509 4232 c-33 -27 -30 -78 5 -109 34 -29 58 -29 92 0 53 46 24 127
-46 127 -15 0 -38 -8 -51 -18z"/>
<path d="M2485 3965 c-17 -9 -179 -164 -360 -345 l-330 -330 83 -83 c116 -116
115 -119 -26 -260 -88 -87 -111 -106 -120 -95 -9 11 9 35 88 113 74 74 100
106 100 125 0 18 -21 46 -75 100 l-75 75 -235 -235 -235 -235 42 -42 c23 -24
47 -43 53 -43 6 0 59 49 118 109 l107 108 0 87 c0 70 3 86 15 86 12 0 15 -18
15 -98 l0 -97 -128 -128 -127 -127 -60 60 -59 60 -53 -52 c-62 -61 -83 -101
-83 -156 0 -63 15 -89 97 -174 l77 -78 53 52 53 52 0 116 0 116 58 57 c48 47
61 56 70 44 9 -10 1 -24 -38 -62 l-50 -49 0 -115 0 -115 -62 -63 c-35 -35 -56
-63 -47 -63 8 0 45 32 82 71 l67 70 0 77 0 77 218 218 217 217 214 0 213 0
123 -110 124 -110 263 0 263 0 157 -157 158 -158 0 257 0 257 -62 3 -63 3 -3
118 c-3 112 -2 117 18 117 19 0 20 -6 20 -100 l0 -100 45 0 45 0 0 68 0 67
-80 80 -80 80 0 -93 c0 -85 -1 -92 -20 -92 -19 0 -20 7 -20 113 l0 112 -297
297 c-164 163 -311 302 -326 307 -40 15 -107 13 -142 -4z m805 -908 c0 -40 5
-47 75 -117 l75 -74 0 -113 c0 -106 -1 -113 -20 -113 -19 0 -20 7 -20 108 l0
108 -75 74 c-72 72 -75 76 -75 122 0 41 3 48 20 48 17 0 20 -7 20 -43z m-1579
-171 c-112 -112 -143 -138 -153 -128 -18 18 260 296 280 280 11 -9 -14 -39
-127 -152z m-134 58 c2 -5 -39 -52 -92 -104 -77 -77 -95 -91 -101 -76 -5 13
15 39 82 107 83 83 103 97 111 73z m129 -125 c4 -6 -37 -55 -97 -115 -82 -82
-106 -101 -117 -92 -11 9 7 31 90 115 56 57 106 103 110 103 4 0 10 -5 14 -11z"/>
<path d="M3550 2645 l0 -420 -228 228 -227 227 -260 0 -260 1 -129 114 -129
115 -166 0 -166 0 -192 -192 -193 -193 0 -75 0 -75 -87 -87 -88 -88 28 -27 27
-27 65 64 65 64 0 76 0 75 212 212 213 212 157 2 156 2 124 -111 123 -111 265
-1 265 0 250 -250 249 -250 28 27 28 27 -55 56 -55 56 0 167 c0 160 1 167 20
167 19 0 20 -7 20 -162 l0 -162 47 -48 c44 -45 48 -47 65 -31 18 16 16 19 -39
75 -45 45 -55 60 -45 70 10 10 25 0 70 -45 48 -47 61 -55 70 -44 9 10 -5 30
-68 92 l-80 80 0 132 c0 126 1 133 20 133 19 0 20 -7 20 -128 l0 -128 73 -72
73 -73 72 74 c77 80 92 107 92 167 0 64 -16 89 -138 212 l-116 118 -28 -27
c-21 -20 -28 -36 -28 -65 0 -31 -3 -38 -20 -38 -17 0 -20 7 -20 43 0 36 6 49
35 77 l35 34 -22 23 -22 23 -23 -22 c-22 -20 -23 -29 -23 -145 0 -116 -1 -123
-20 -123 -19 0 -20 7 -20 127 l0 127 30 31 30 31 -40 39 -40 39 0 -419z
m-1586 164 c-35 -36 -54 -42 -54 -16 0 6 14 26 32 44 25 25 34 30 45 21 11 -9
7 -18 -23 -49z m-195 -195 c-106 -106 -136 -131 -147 -122 -11 9 13 37 119
144 106 106 136 131 147 122 11 -9 -13 -37 -119 -144z"/>
<path d="M1987 2662 l-87 -87 75 -75 75 -74 0 -75 0 -75 -50 -48 c-47 -45 -53
-48 -103 -48 l-52 0 -100 -100 -100 -100 405 -405 c223 -223 419 -412 437
-420 36 -17 100 -19 140 -4 15 5 229 211 476 457 l447 447 -237 237 -238 238
-261 0 -260 0 -124 110 -125 110 -115 0 -115 0 -88 -88z m37 -8 c8 -3 12 -12
9 -20 -4 -11 5 -14 36 -14 34 0 41 -3 41 -20 0 -18 -7 -20 -85 -20 -47 0 -85
3 -85 7 0 6 61 73 66 73 1 0 9 -3 18 -6z m86 -99 c0 -12 -13 -15 -60 -15 -47
0 -60 3 -60 15 0 12 13 15 60 15 47 0 60 -3 60 -15z m1242 -357 c-18 -18 -206
170 -190 190 9 11 30 -5 107 -82 76 -76 93 -98 83 -108z m-30 -25 c44 -43 48
-51 48 -94 0 -43 -4 -50 -54 -98 -30 -28 -59 -51 -65 -51 -29 0 -18 28 33 79
31 31 56 65 56 76 0 11 -21 40 -46 66 -26 26 -43 52 -40 58 11 17 17 14 68
-36z m-9 -265 c-141 -141 -180 -175 -191 -166 -11 9 19 44 153 178 l165 166
-35 34 c-27 26 -32 36 -23 47 9 11 20 5 60 -34 l48 -48 -177 -177z"/>
<path d="M910 2627 c-80 -40 -24 -174 57 -135 42 20 59 58 44 95 -7 17 -24 35
-37 42 -31 14 -33 14 -64 -2z"/>
<path d="M4144 2629 c-22 -11 -44 -48 -44 -74 0 -8 11 -26 23 -41 46 -53 127
-24 127 46 0 54 -59 92 -106 69z"/>
<path d="M1832 2507 l-32 -33 50 -49 50 -49 -66 -67 c-55 -56 -66 -71 -61 -91
5 -20 -7 -37 -78 -108 -47 -47 -85 -89 -85 -94 0 -6 49 38 109 97 l108 107 54
0 c50 0 58 3 92 38 30 31 37 45 37 77 l0 39 -35 -34 c-27 -26 -38 -31 -47 -22
-9 9 -3 22 30 55 l42 43 -63 62 c-34 34 -65 62 -68 62 -3 0 -19 -15 -37 -33z"/>
<path d="M1726 2398 c-9 -12 -13 -24 -11 -27 6 -5 45 29 45 41 0 15 -19 8 -34
-14z"/>
<path d="M1790 2404 c0 -9 -18 -36 -40 -60 -30 -32 -40 -52 -40 -76 0 -27 -13
-46 -81 -114 -71 -72 -78 -82 -64 -94 14 -12 26 -4 94 64 65 64 77 81 74 104
-4 22 6 37 51 82 31 30 56 59 56 66 0 11 -32 44 -43 44 -4 0 -7 -7 -7 -16z"/>
<path d="M2523 1008 c-33 -16 -48 -60 -31 -95 40 -83 174 -29 138 56 -11 27
-47 52 -73 50 -7 0 -22 -5 -34 -11z"/>
</g>
</svg>
